<svg xmlns="http://www.w3.org/2000/svg" xmlns:xlink="http://www.w3.org/1999/xlink" width="500" zoomAndPan="magnify" viewBox="0 0 375 374.999991" height="500" preserveAspectRatio="xMidYMid meet" version="1.0"><defs><clipPath id="b27a6989ad"><path d="M 37.5 37.5 L 337.5 37.5 L 337.5 337.5 L 37.5 337.5 Z M 37.5 37.5 " clip-rule="nonzero"/></clipPath></defs><g clip-path="url(#b27a6989ad)"><path fill="#004aad" d="M 55.5 37.5 L 187.320312 37.5 C 228.601562 37.5 266.101562 54.601562 293.398438 81.601562 C 320.398438 108.898438 337.5 146.398438 337.5 187.621094 C 337.5 228.839844 320.398438 266.398438 293.398438 293.699219 C 266.101562 320.699219 228.601562 337.5 187.378906 337.5 L 127.679688 337.5 L 127.679688 265.378906 L 163.679688 265.378906 L 163.679688 301.378906 L 187.378906 301.378906 C 218.578125 301.378906 247.078125 288.78125 267.78125 267.960938 C 288.480469 247.140625 301.199219 218.761719 301.199219 187.558594 C 301.199219 156.058594 288.601562 127.859375 267.78125 107.160156 C 246.960938 86.460938 218.578125 73.738281 187.378906 73.738281 L 73.5 73.738281 L 73.5 211.140625 L 127.621094 211.140625 L 127.621094 127.921875 L 187.320312 127.921875 C 203.640625 127.921875 218.519531 134.699219 229.5 145.441406 C 240.179688 156.421875 247.019531 171.238281 247.019531 187.621094 C 247.019531 204 240.238281 218.820312 229.5 229.800781 C 218.519531 240.480469 203.699219 247.320312 187.320312 247.320312 L 37.5 247.320312 L 37.5 37.5 Z M 37.5 337.5 L 73.5 337.5 L 73.5 301.5 L 37.5 301.5 Z M 163.679688 163.980469 L 163.679688 211.320312 L 187.378906 211.320312 C 193.679688 211.320312 199.558594 208.621094 203.878906 204.238281 C 208.261719 199.859375 210.960938 194.039062 210.960938 187.738281 C 210.960938 181.441406 208.261719 175.558594 203.878906 171.238281 C 199.5 166.859375 193.679688 164.160156 187.378906 164.160156 L 163.679688 164.160156 Z M 163.679688 163.980469 " fill-opacity="1" fill-rule="nonzero"/></g></svg>